<svg xmlns="http://www.w3.org/2000/svg" xmlns:xlink="http://www.w3.org/1999/xlink" width="13.639" height="15.566" viewBox="0 0 13.639 15.566">
  <defs>
    <clipPath id="clip-path">
      <rect id="Rectangle_22972" data-name="Rectangle 22972" width="8.639" height="15.566" fill="#731111"/>
    </clipPath>
  </defs>
  <g id="Group_44621" data-name="Group 44621" transform="translate(-1152.191 -91.615)">
    <g id="Group_44619" data-name="Group 44619" transform="translate(1152.191 91.615)">
      <g id="Group_44618" data-name="Group 44618" clip-path="url(#clip-path)">
        <path id="Path_83911" data-name="Path 83911" d="M6.632,7.764A1.162,1.162,0,0,1,6.5,7.671L1.988,3.156.273,1.441A.835.835,0,0,1,.089.524.835.835,0,0,1,.9,0,.826.826,0,0,1,1.463.25Q2.571,1.36,3.681,2.467l3.6,3.6q.542.542,1.084,1.084A.842.842,0,0,1,8.359,8.4L1.474,15.285a.824.824,0,0,1-.863.244.81.81,0,0,1-.593-.659.776.776,0,0,1,.214-.721c.4-.408.8-.809,1.2-1.212L3.77,10.6,6.387,7.991c.069-.069.143-.132.245-.227" transform="translate(0 -0.001)" fill="#731111"/>
      </g>
    </g>
    <g id="Group_44620" data-name="Group 44620" transform="translate(1157.191 91.615)">
      <g id="Group_44618-2" data-name="Group 44618" clip-path="url(#clip-path)">
        <path id="Path_83911-2" data-name="Path 83911" d="M6.632,7.764A1.162,1.162,0,0,1,6.5,7.671L1.988,3.156.273,1.441A.835.835,0,0,1,.089.524.835.835,0,0,1,.9,0,.826.826,0,0,1,1.463.25Q2.571,1.36,3.681,2.467l3.6,3.6q.542.542,1.084,1.084A.842.842,0,0,1,8.359,8.4L1.474,15.285a.824.824,0,0,1-.863.244.81.81,0,0,1-.593-.659.776.776,0,0,1,.214-.721c.4-.408.8-.809,1.2-1.212L3.77,10.6,6.387,7.991c.069-.069.143-.132.245-.227" transform="translate(0 -0.001)" fill="#731111"/>
      </g>
    </g>
  </g>
</svg>
