<svg id="Group_44434" data-name="Group 44434" xmlns="http://www.w3.org/2000/svg" xmlns:xlink="http://www.w3.org/1999/xlink" width="19.101" height="21.149" viewBox="0 0 19.101 21.149">
  <defs>
    <clipPath id="clip-path">
      <rect id="Rectangle_22938" data-name="Rectangle 22938" width="19.101" height="21.149" fill="#02427a"/>
    </clipPath>
  </defs>
  <g id="Group_44433" data-name="Group 44433" clip-path="url(#clip-path)">
    <path id="Path_83829" data-name="Path 83829" d="M9.18,21.149c-.138-.034-.279-.062-.415-.1a3.041,3.041,0,0,1-2.236-2.452c-.011-.053-.026-.106-.042-.172H6.238c-1.3,0-2.6.007-3.9,0A2.373,2.373,0,0,1,.158,16.884a2.332,2.332,0,0,1,.6-2.57,2.513,2.513,0,0,1,1.6-.668c.3-.018.367-.093.367-.4,0-1.342-.027-2.685.006-4.026a6.687,6.687,0,0,1,4.106-6.27c.129-.062.316-.08.381-.18s.006-.277,0-.42a2.325,2.325,0,1,1,4.649.024c0,.13-.018.26-.03.416.081.035.175.072.266.114a6.948,6.948,0,0,1,4.22,5.755,6.53,6.53,0,0,1,.038.8c0,1.239,0,2.478,0,3.717,0,.4.036.435.423.469a2.454,2.454,0,0,1,2.26,1.91,2.385,2.385,0,0,1-2.323,2.859c-1.294.009-2.588,0-3.882,0H12.67a9.339,9.339,0,0,1-.461,1.166A2.947,2.947,0,0,1,10,21.114a.894.894,0,0,0-.117.035Zm.36-4.091q3.552,0,7.1,0a1.021,1.021,0,1,0,.125-2.039c-.15-.02-.3-.015-.451-.046a1.628,1.628,0,0,1-1.308-1.632q-.007-1.962,0-3.923a5.748,5.748,0,0,0-.381-2.1A5.4,5.4,0,0,0,7.1,4.342a5.241,5.241,0,0,0-3,4.782c-.04,1.41,0,2.822-.01,4.233a1.628,1.628,0,0,1-1.324,1.619c-.175.035-.357.028-.533.058a1.016,1.016,0,0,0-.734,1.513,1.046,1.046,0,0,0,.972.511q3.531,0,7.062,0M7.906,18.432a1.678,1.678,0,0,0,3.292,0ZM10.493,2.421a.915.915,0,0,0-.467-.932.959.959,0,0,0-1.082.091.835.835,0,0,0-.322.841Z" transform="translate(0 0)" fill="#02427a"/>
    <path id="Path_83830" data-name="Path 83830" d="M1.339,51.67A.665.665,0,0,1,.7,50.784a14.162,14.162,0,0,1,.476-1.49,8.95,8.95,0,0,1,2.016-3.039.687.687,0,0,1,.848-.137.654.654,0,0,1,.315.759.878.878,0,0,1-.208.347,8.029,8.029,0,0,0-2.119,3.854.68.68,0,0,1-.687.592" transform="translate(-0.63 -43.488)" fill="#02427a"/>
    <path id="Path_83831" data-name="Path 83831" d="M281.865,50.869a.689.689,0,0,1-.568.7.681.681,0,0,1-.764-.488c-.128-.413-.23-.836-.384-1.239a7.687,7.687,0,0,0-1.737-2.682.733.733,0,0,1-.256-.624.646.646,0,0,1,.449-.566.669.669,0,0,1,.736.184,9.351,9.351,0,0,1,2.5,4.528c.017.073.022.149.028.184" transform="translate(-262.802 -43.395)" fill="#02427a"/>
  </g>
</svg>
