<svg xmlns="http://www.w3.org/2000/svg" width="24" height="24" viewBox="0 0 24 24">
  <path id="dashboard" d="M3,2A1,1,0,0,0,2,3V6A1,1,0,0,0,3,7H6A1,1,0,0,0,7,6V3A1,1,0,0,0,6,2ZM3,0H6A3,3,0,0,1,9,3V6A3,3,0,0,1,6,9H3A3,3,0,0,1,0,6V3A3,3,0,0,1,3,0ZM14,16h7a3,3,0,0,1,3,3v2a3,3,0,0,1-3,3H14a3,3,0,0,1-3-3V19A3,3,0,0,1,14,16Zm0,2a1,1,0,0,0-1,1v2a1,1,0,0,0,1,1h7a1,1,0,0,0,1-1V19a1,1,0,0,0-1-1ZM3,11H6a3,3,0,0,1,3,3v7a3,3,0,0,1-3,3H3a3,3,0,0,1-3-3V14A3,3,0,0,1,3,11Zm0,2a1,1,0,0,0-1,1v7a1,1,0,0,0,1,1H6a1,1,0,0,0,1-1V14a1,1,0,0,0-1-1ZM21,0a3,3,0,0,1,3,3v8a3,3,0,0,1-3,3H14a3,3,0,0,1-3-3V3a3,3,0,0,1,3-3ZM13,3v8a1,1,0,0,0,1,1h7a1,1,0,0,0,1-1V3a1,1,0,0,0-1-1H14A1,1,0,0,0,13,3Z" fill="#02b3f0" fill-rule="evenodd"/>
</svg>
