<svg xmlns="http://www.w3.org/2000/svg" xmlns:xlink="http://www.w3.org/1999/xlink" width="26.745" height="32.542" viewBox="0 0 26.745 32.542">
  <defs>
    <clipPath id="clip-path">
      <rect id="Rectangle_22961" data-name="Rectangle 22961" width="26.745" height="32.542" transform="translate(0 0)" fill="#02427a"/>
    </clipPath>
  </defs>
  <g id="Group_44588" data-name="Group 44588" transform="translate(0 0)">
    <g id="Group_44592" data-name="Group 44592" clip-path="url(#clip-path)">
      <path id="Path_83863" data-name="Path 83863" d="M20.843.007c3-.069,4.5.329,5.521,2.608A4.5,4.5,0,0,1,26.74,4.47V8.031c0,5.2.014,10.4-.008,15.593a4.12,4.12,0,0,1-2.49,3.862,11.158,11.158,0,0,1-1.326.468,4.515,4.515,0,0,1-1.167,3.193,4.261,4.261,0,0,1-3.063,1.4c-1.067,0-13.374,0-13.69,0a5.98,5.98,0,0,1-1.937-.177,4.47,4.47,0,0,1-1.584-.884A4.363,4.363,0,0,1,0,28.31Q0,18.684,0,9.061A4.313,4.313,0,0,1,4.247,4.68H14.556A3.684,3.684,0,0,1,17.3,5.813q2.2,2.227,4.433,4.431a3.825,3.825,0,0,1,1.178,2.868Q22.9,18.161,22.9,23.2v2.38a2.024,2.024,0,0,0,1.655-2.141q.006-9.47,0-18.938a2.21,2.21,0,0,0-.956-1.9,4.576,4.576,0,0,0-2.628-.362c-2.689,0-13.96.011-13.96.011a1.42,1.42,0,0,0-.893.381c-.158.167-.536.576-.536.576-.727.016-1.641-.009-2.367-.021a3.608,3.608,0,0,1,1.06-1.884A3.434,3.434,0,0,1,6.987.064C7.2.055,16.465.108,20.843.007m-5.927,6.88H4.615a2.088,2.088,0,0,0-2.433,1.9c-.02.17,0,12.956,0,19.178a2.193,2.193,0,0,0,1.973,2.391c.148.014,9.492-.035,14.016.016a2.373,2.373,0,0,0,2.554-2.179c.011-.127-.017-15.276-.017-15.4.005-.269-.122-.361-.39-.356-.684.015-1.369-.006-2.053.007a3.142,3.142,0,0,1-3.345-2.923c-.008-.128,0-1.848,0-2.639" fill="#02427a"/>
      <path id="Path_83864" data-name="Path 83864" d="M11.463,23.965h5.68a1.337,1.337,0,0,1,1.3.862,1.174,1.174,0,0,1-.414,1.4,1.966,1.966,0,0,1-1,.317c-3.725.022-7.45.017-11.175.011A1.363,1.363,0,0,1,4.4,25.286v-.02a1.334,1.334,0,0,1,1.355-1.313" fill="#02427a"/>
      <path id="Path_83865" data-name="Path 83865" d="M11.5,21C9.575,21,7.652,21,5.729,21a1.263,1.263,0,0,1-1.292-1.086,1.227,1.227,0,0,1,.774-1.369,1.607,1.607,0,0,1,.57-.1q5.7-.007,11.4,0A1.28,1.28,0,1,1,17.341,21a1.423,1.423,0,0,1-.16,0c-1.893.009-3.786,0-5.679,0" fill="#02427a"/>
      <path id="Path_83866" data-name="Path 83866" d="M12.218,12.873a1.3,1.3,0,1,1,.337,2.578c-.112.015-4.6.009-6.737,0a1.3,1.3,0,0,1-.322-2.58" fill="#02427a"/>
    </g>
  </g>
</svg>
