<svg id="Group_44642" data-name="Group 44642" xmlns="http://www.w3.org/2000/svg" xmlns:xlink="http://www.w3.org/1999/xlink" width="24" height="24.784" viewBox="0 0 24 24.784">
  <defs>
    <clipPath id="clip-path">
      <rect id="Rectangle_22967" data-name="Rectangle 22967" width="24" height="24.784" fill="#fff"/>
    </clipPath>
  </defs>
  <g id="Group_44605" data-name="Group 44605" clip-path="url(#clip-path)">
    <path id="Path_83894" data-name="Path 83894" d="M21.993,142.343v2.026H21.2v-1.853c-.684.147-1.334.285-1.983.426-1.545.335-3.09.666-4.633,1.01a.52.52,0,0,1-.57-.194c-.489-.579-.985-1.153-1.478-1.728-.031-.037-.066-.071-.124-.134v9.567L15.1,150.8l.2.772c-.693.174-1.384.3-2.042.523a4.183,4.183,0,0,1-2.505,0C8,151.367,5.23,150.7,2.471,150.012c-.409-.1-.473-.185-.473-.6q0-3.374,0-6.749v-.32c-.533-.118-1.058-.239-1.584-.348a.454.454,0,0,1-.395-.3.438.438,0,0,1,.165-.465c.755-.753,1.506-1.51,2.266-2.259a.706.706,0,0,1,.339-.186q3.1-.592,6.2-1.168l.126-.02.15.779-4.1.771,0,.037c.547.1,1.094.2,1.641.291q2.509.436,5.019.865a1.419,1.419,0,0,0,.466-.015q3.187-.547,6.372-1.1c.055-.01.109-.032.22-.065l-4.156-.782.139-.783,1.553.289c1.57.295,3.141.585,4.709.891a.934.934,0,0,1,.448.236c.74.721,1.465,1.457,2.2,2.186.14.14.267.282.2.5s-.248.272-.442.313c-.5.108-1.008.219-1.541.334M11.584,141.9c-.069.074-.114.118-.154.166-.489.568-.979,1.135-1.463,1.707a.505.505,0,0,1-.55.185q-2.643-.585-5.29-1.155c-.435-.095-.87-.186-1.318-.281v6.753l8.775,2.193Zm-.351-.84c-2.745-.479-5.432-.949-8.12-1.409a.4.4,0,0,0-.3.1c-.5.48-.982.972-1.469,1.462a1.373,1.373,0,0,0-.108.145l.487.107q3.777.82,7.553,1.644a.257.257,0,0,0,.3-.1c.26-.314.53-.62.795-.93l.867-1.016m1.528,0c.6.7,1.155,1.353,1.726,2a.3.3,0,0,0,.242.037q3.766-.81,7.531-1.63c.163-.035.325-.077.533-.127-.576-.575-1.108-1.113-1.653-1.637a.39.39,0,0,0-.293-.049c-1.4.238-2.8.484-4.2.728l-3.883.676" transform="translate(0 -128.401)" fill="#fff"/>
    <path id="Path_83895" data-name="Path 83895" d="M129.362,33.266c-.158,0-.317.005-.474,0a1.6,1.6,0,0,1-1.532-1.548c-.007-.241-.012-.483,0-.724a1.094,1.094,0,0,0-.389-.9,3.6,3.6,0,1,1,4.8-.03,1.194,1.194,0,0,0-.42.99,4.725,4.725,0,0,1-.01.8,1.594,1.594,0,0,1-1.578,1.419c-.133,0-.266,0-.4,0Zm.553-4.916c.178-.134.333-.245.48-.367.061-.05.147-.124.145-.186,0-.165.007-.393-.09-.477-.162-.14-.263.093-.368.19a1,1,0,0,1-1.452,0c-.066-.063-.123-.161-.2-.181a.29.29,0,0,0-.257.066.542.542,0,0,0,.169.614c.393.3.783.593,1.18.883a.514.514,0,0,1,.233.467c-.008.23,0,.461,0,.708.186,0,.344-.011.5,0,.3.027.568,0,.716-.326a.914.914,0,0,1,.223-.233,2.889,2.889,0,0,0,.91-2.694,2.808,2.808,0,0,0-3.04-2.333,2.752,2.752,0,0,0-2.344,1.917,2.819,2.819,0,0,0,.68,3c.175.188.337.388.509.579a.23.23,0,0,0,.136.083c.3.007.594,0,.881,0a.688.688,0,0,0-.335-.88c-.217-.117-.392-.312-.6-.44a1.282,1.282,0,0,1-.634-1.356.985.985,0,0,1,.723-.886,1.016,1.016,0,0,1,1.048.364c.213.221.243.216.462,0a2.443,2.443,0,0,1,.221-.2.979.979,0,0,1,1.294.11,1.434,1.434,0,0,1-.03,1.686c-.217.178-.442.345-.674.525l-.48-.639m-1.751,2.9h2.378v-.37h-2.378Zm.1.826c.432.572,1.009.354,1.517.382a.683.683,0,0,0,.638-.382Z" transform="translate(-117.355 -22.085)" fill="#fff"/>
    <path id="Path_83896" data-name="Path 83896" d="M229.611,239.846c.146.115.282.216.411.326.109.093.179.236.374.128s.45-.123.376-.446a.66.66,0,0,1,0-.2.4.4,0,0,1,.435-.413c.45-.006.9,0,1.349,0,.314,0,.454.142.47.456,0,.042,0,.083,0,.125a.524.524,0,0,0,.508.521.263.263,0,0,0,.144-.079c.081-.071.152-.154.232-.227a.388.388,0,0,1,.6-.006q.513.494,1.007,1.007a.385.385,0,0,1,0,.579c-.033.038-.069.072-.1.107a.491.491,0,0,0-.031.724.28.28,0,0,0,.176.06c.116.01.234,0,.349.008a.386.386,0,0,1,.393.4q.013.724,0,1.449a.381.381,0,0,1-.373.4,1.3,1.3,0,0,1-.15.006c-.366.006-.517.129-.57.479a.226.226,0,0,0,.053.15,2.546,2.546,0,0,0,.191.2c.263.271.264.454,0,.724q-.439.444-.883.883a.417.417,0,0,1-.688,0l-.071-.071a.521.521,0,0,0-.726-.006.273.273,0,0,0-.045.16c-.008.116,0,.234-.007.349a.393.393,0,0,1-.421.4q-.7.01-1.4,0a.4.4,0,0,1-.43-.418c0-.05,0-.1,0-.15a.5.5,0,0,0-.5-.531.243.243,0,0,0-.146.07c-.088.076-.163.167-.25.244a.383.383,0,0,1-.578,0q-.513-.494-1.007-1.007a.389.389,0,0,1,0-.6c.022-.025.047-.047.07-.071a.479.479,0,0,0,.062-.74.264.264,0,0,0-.17-.07c-.107-.011-.216,0-.324-.006a.4.4,0,0,1-.431-.442q-.008-.687,0-1.374a.4.4,0,0,1,.412-.435c.05,0,.1,0,.15,0a.494.494,0,0,0,.536-.491.234.234,0,0,0-.064-.148c-.07-.082-.153-.153-.227-.232a.4.4,0,0,1,0-.633c.314-.322.631-.641.956-.952a2,2,0,0,1,.344-.209m5.031,6.114a2.524,2.524,0,0,1-.235-.388,1.655,1.655,0,0,1,.625-1.522,2.655,2.655,0,0,1,.455-.117v-.613a.815.815,0,0,1-.829-.489,3.119,3.119,0,0,0-.126-.325.851.851,0,0,1,.122-1.164l-.427-.439a2.861,2.861,0,0,1-.444.24,1.732,1.732,0,0,1-1.462-.614,2.647,2.647,0,0,1-.129-.477h-.61a.812.812,0,0,1-.537.846,1.766,1.766,0,0,0-.278.11.852.852,0,0,1-1.164-.122l-.443.432a2.665,2.665,0,0,1,.238.415,1.707,1.707,0,0,1-.61,1.486,2.674,2.674,0,0,1-.476.131v.609a.82.82,0,0,1,.783.4c.066.124.094.269.162.391a.864.864,0,0,1-.1,1.174l.44.444a2.281,2.281,0,0,1,.369-.222,1.655,1.655,0,0,1,1.52.628,2.8,2.8,0,0,1,.119.464c.158,0,.316,0,.473,0,.04,0,.08-.008.116-.011.121-.554.21-.7.511-.828a3.117,3.117,0,0,0,.326-.125.856.856,0,0,1,1.179.139l.43-.452" transform="translate(-212.301 -223.258)" fill="#fff"/>
    <path id="Path_83897" data-name="Path 83897" d="M120.962,19.415l.539-.529.8.819-.568.489-.767-.779" transform="translate(-112.883 -17.625)" fill="#fff"/>
    <path id="Path_83898" data-name="Path 83898" d="M219.505,19.018l.5.5-.854.806-.471-.5.821-.808" transform="translate(-204.077 -17.748)" fill="#fff"/>
    <rect id="Rectangle_22964" data-name="Rectangle 22964" width="0.765" height="1.178" transform="translate(11.617 0)" fill="#fff"/>
    <rect id="Rectangle_22965" data-name="Rectangle 22965" width="1.169" height="0.768" transform="translate(6.819 4.8)" fill="#fff"/>
    <rect id="Rectangle_22966" data-name="Rectangle 22966" width="1.177" height="0.764" transform="translate(16.016 4.798)" fill="#fff"/>
    <path id="Path_83899" data-name="Path 83899" d="M264.874,274.417a2.2,2.2,0,1,1-2.207-2.205,2.2,2.2,0,0,1,2.207,2.205m-.8,0a1.4,1.4,0,1,0-1.41,1.39,1.4,1.4,0,0,0,1.41-1.39" transform="translate(-243.077 -254.03)" fill="#fff"/>
  </g>
</svg>
