<svg id="Group_44534" data-name="Group 44534" xmlns="http://www.w3.org/2000/svg" xmlns:xlink="http://www.w3.org/1999/xlink" width="28.895" height="31.982" viewBox="0 0 28.895 31.982">
  <defs>
    <clipPath id="clip-path">
      <rect id="Rectangle_22954" data-name="Rectangle 22954" width="28.895" height="31.982" fill="#02427a"/>
    </clipPath>
  </defs>
  <g id="Group_44533" data-name="Group 44533" clip-path="url(#clip-path)">
    <path id="Path_83849" data-name="Path 83849" d="M25.978,16.695c-1.324-.238-2.592-.543-3.877-.676a8.021,8.021,0,0,0-3.527.648,5.709,5.709,0,0,1-1.618.31c-.952.049-1.909.014-2.912.014v2.955l.409.1A9.379,9.379,0,0,0,13,24.909a9.626,9.626,0,0,0,.714,3.584,11.544,11.544,0,0,1,.349,1.217l2.178,2.206a3.411,3.411,0,0,1-.442.064q-6.18,0-12.359,0A3.284,3.284,0,0,1,.007,28.569Q-.006,15.96.006,3.351A3.292,3.292,0,0,1,3.375,0q9.675,0,19.351,0a3.209,3.209,0,0,1,3.235,3.079c.05,4.576.017,9.153.017,13.61M2.032,9.951H23.954V2.038H2.032Zm0,9.984H5.965V17.029H2.028Zm6,.008h3.917V17.022H8.031Zm-2.075,2.09H2.037v2.919h3.92Zm2.075,2.905h3.917V22.017H8.031ZM5.985,27.023H2.052v2.9H5.985Zm2.062,2.905h3.916V27.008H8.048ZM2.058,14.949H5.952V12.01H2.058Zm5.993.011H11.96V12.019H8.051Zm9.914-2.931H14.033v2.918h3.932Zm2.065,2.917h3.924V12.027H20.03Z" transform="translate(0 0)" fill="#02427a"/>
    <path id="Path_83850" data-name="Path 83850" d="M127.71,144.5a6.915,6.915,0,0,1,6.852,6.865,6.907,6.907,0,0,1-13.814.142,6.936,6.936,0,0,1,6.962-7.007M126.6,156.485c.592,0,1.088-.018,1.581.006.413.02.541-.156.533-.55-.018-.936.017-1.873-.013-2.808-.015-.483.132-.669.636-.652.956.032,1.914.023,2.87-.007.165-.005.454-.19.465-.311.05-.569.022-1.145.022-1.776-.838,0-1.583.014-2.328,0-1.984-.043-1.621.327-1.662-1.678-.015-.759,0-1.518,0-2.323-.612,0-1.11.015-1.607,0-.385-.016-.506.152-.5.517.014.957-.015,1.915.011,2.871.012.455-.13.633-.6.619-.956-.028-1.914-.022-2.871.006-.174.005-.482.171-.492.282-.049.588-.023,1.183-.023,1.814,1.193,0,2.275.022,3.355-.01.5-.015.65.172.638.654-.028,1.079-.009,2.158-.009,3.353" transform="translate(-105.667 -126.451)" fill="#02427a"/>
  </g>
</svg>
