<svg id="Group_44471" data-name="Group 44471" xmlns="http://www.w3.org/2000/svg" xmlns:xlink="http://www.w3.org/1999/xlink" width="29.852" height="29.831" viewBox="0 0 29.852 29.831">
  <defs>
    <clipPath id="clip-path">
      <rect id="Rectangle_22948" data-name="Rectangle 22948" width="29.851" height="29.831" fill="#731111"/>
    </clipPath>
  </defs>
  <g id="Group_44470" data-name="Group 44470" clip-path="url(#clip-path)">
    <path id="Path_83840" data-name="Path 83840" d="M13.47,72.158q-4.6,0-9.195,0A4.059,4.059,0,0,1,.54,70.1,3.987,3.987,0,0,1,0,68.017q0-9.353,0-18.706a4.025,4.025,0,0,1,4.149-4.124q4.645-.008,9.29,0A1.347,1.347,0,0,1,14.821,46.3,1.322,1.322,0,0,1,14,47.773a2.12,2.12,0,0,1-.71.11c-3,.007-6,.027-9.005-.008a1.482,1.482,0,0,0-1.587,1.6c.024,6.13.012,12.26.013,18.39a1.387,1.387,0,0,0,1.582,1.588c6.14,0,12.281-.01,18.421.012a1.475,1.475,0,0,0,1.577-1.581c-.033-3.023-.013-6.046-.011-9.068a1.373,1.373,0,0,1,1.235-1.493,1.346,1.346,0,0,1,1.464,1.384c.005,2.012,0,4.023,0,6.035q0,1.6,0,3.191a4.053,4.053,0,0,1-4.215,4.221q-4.645.009-9.29,0" transform="translate(0 -42.328)" fill="#731111"/>
    <path id="Path_83841" data-name="Path 83841" d="M146.088,0A4,4,0,0,1,149.7,2.526,4.043,4.043,0,0,1,148.991,7c-.108.129-.227.249-.346.368q-6.221,6.222-12.439,12.447a2.16,2.16,0,0,1-1.051.6c-1.685.412-3.365.841-5.049,1.257a1.354,1.354,0,0,1-1.71-1.725c.429-1.724.853-3.45,1.306-5.168a1.865,1.865,0,0,1,.453-.807Q136.472,7.621,142.813,1.3A4.366,4.366,0,0,1,146.088,0M131.529,18.534c.956-.24,1.861-.463,2.763-.7a.628.628,0,0,0,.249-.18Q140.7,11.5,146.851,5.346a1.513,1.513,0,1,0-2.14-2.13Q138.554,9.368,132.4,15.528a.8.8,0,0,0-.2.341c-.226.864-.438,1.732-.672,2.666" transform="translate(-120.229)" fill="#731111"/>
  </g>
</svg>
