<svg id="Group_44645" data-name="Group 44645" xmlns="http://www.w3.org/2000/svg" xmlns:xlink="http://www.w3.org/1999/xlink" width="24" height="24" viewBox="0 0 24 24">
  <defs>
    <clipPath id="clip-path">
      <rect id="Rectangle_22970" data-name="Rectangle 22970" width="24" height="24" fill="#fff"/>
    </clipPath>
  </defs>
  <g id="Group_44611" data-name="Group 44611" clip-path="url(#clip-path)">
    <path id="Path_83905" data-name="Path 83905" d="M10.125,0q1.819.677,3.638,1.353,2.93,1.082,5.862,2.157a.523.523,0,0,1,.387.546q0,2.1-.007,4.195c0,.062,0,.125,0,.187A.513.513,0,0,1,19.5,9a.507.507,0,0,1-.5-.561c0-1.133,0-2.266,0-3.4V4.725c-.425.154-.825.3-1.223.444q-3.534,1.3-7.068,2.6a.263.263,0,0,0-.209.3c.007,1.461.005,2.922,0,4.383,0,.4-.285.653-.62.563a.5.5,0,0,1-.374-.528c0-.766,0-1.531,0-2.3,0-.711,0-1.422,0-2.133a.241.241,0,0,0-.179-.276q-4.075-1.493-8.146-3c-.049-.018-.1-.03-.186-.055V5Q1,10.188.991,15.379a.323.323,0,0,0,.25.368q3.681,1.342,7.356,2.7c.044.016.088.031.132.049a.5.5,0,1,1-.355.935Q5.585,18.408,2.8,17.38L.45,16.512A.548.548,0,0,1,0,15.87Q0,9.988,0,4.105c0-.372.093-.491.44-.619Q5.074,1.785,9.706.078A.989.989,0,0,0,9.844,0Zm7.9,4.009c-.075-.036-.121-.062-.17-.08q-3.849-1.421-7.7-2.837a.52.52,0,0,0-.33.01Q6.487,2.324,3.154,3.558L1.959,4c.1.039.157.063.214.084Q5.948,5.473,9.72,6.867a.738.738,0,0,0,.558.005c1.643-.613,3.29-1.216,4.935-1.822L18.026,4.01" transform="translate(0 -0.001)" fill="#fff"/>
    <path id="Path_83906" data-name="Path 83906" d="M188.8,182.578c-.071.366-.12.737-.216,1.1a6.5,6.5,0,1,1,.126-2.7c.027.177.06.352.09.528Zm-1-.4a5.5,5.5,0,1,0-5.648,5.35,5.524,5.524,0,0,0,5.648-5.35" transform="translate(-164.805 -164.531)" fill="#fff"/>
    <path id="Path_83907" data-name="Path 83907" d="M226.6,228.926v-.313q0-2.19,0-4.38c0-.331.142-.532.4-.577a.5.5,0,0,1,.6.542c0,.851,0,1.7,0,2.553q0,.949,0,1.9v.272c.1-.1.169-.157.233-.221q.936-.935,1.871-1.873a.468.468,0,0,1,.549-.148.736.736,0,0,1,.324.363c.084.21-.054.383-.205.534q-1.386,1.38-2.767,2.765c-.033.033-.066.067-.1.1a.508.508,0,0,1-.815,0c-.494-.488-.984-.982-1.475-1.473s-.963-.959-1.44-1.442a.5.5,0,0,1-.111-.619.461.461,0,0,1,.535-.239.9.9,0,0,1,.346.221c.618.607,1.228,1.223,1.841,1.836.054.054.112.106.218.206" transform="translate(-209.592 -209.641)" fill="#fff"/>
  </g>
</svg>
