<svg xmlns="http://www.w3.org/2000/svg" width="42.007" height="38.771" viewBox="0 0 42.007 38.771">
  <path id="Path_83877" data-name="Path 83877" d="M41.008,1.527c-.41.553-.8,1.125-1.233,1.656q-6.816,8.285-13.637,16.565a1.1,1.1,0,0,0-.212.649c-.021,3.9-.04,7.794-.025,11.691a1.612,1.612,0,0,1-1.009,1.635c-2.6,1.263-5.183,2.566-7.782,3.833a2.011,2.011,0,0,1-.988.209,1.12,1.12,0,0,1-1-1.036,4.4,4.4,0,0,1-.033-.6q0-7.848,0-15.695a1.152,1.152,0,0,0-.29-.792Q7.611,10.944.432,2.232A1.321,1.321,0,0,1,.126.726,1.339,1.339,0,0,1,1.485,0Q20.5.01,39.522,0a1.458,1.458,0,0,1,1.486.967Zm-37.1.979c.106.14.166.227.233.308q6.429,7.8,12.867,15.592a2.358,2.358,0,0,1,.575,1.6c-.015,4.671-.008,9.342-.008,14.014v.519c.176-.077.3-.124.409-.18,1.684-.833,3.365-1.674,5.055-2.494a.569.569,0,0,0,.374-.6c0-3.764.016-7.527.01-11.291a2.267,2.267,0,0,1,.548-1.532q6.456-7.8,12.891-15.624c.071-.086.13-.183.22-.309Z" transform="translate(0.5 0.5)" fill="#02427a" stroke="#02427a" stroke-width="1"/>
</svg>
