<svg id="Group_44450" data-name="Group 44450" xmlns="http://www.w3.org/2000/svg" xmlns:xlink="http://www.w3.org/1999/xlink" width="34.558" height="29.621" viewBox="0 0 34.558 29.621">
  <defs>
    <clipPath id="clip-path">
      <rect id="Rectangle_22942" data-name="Rectangle 22942" width="34.558" height="29.621" fill="#731111"/>
    </clipPath>
  </defs>
  <g id="Group_44449" data-name="Group 44449" clip-path="url(#clip-path)">
    <path id="Path_83835" data-name="Path 83835" d="M17.316,0H32.2a2.179,2.179,0,0,1,2.356,2.352q0,12.457,0,24.913a2.178,2.178,0,0,1-2.353,2.356H2.356A2.176,2.176,0,0,1,0,27.269Q0,14.812,0,2.355A2.176,2.176,0,0,1,2.353,0H17.316M32.09,23.481c0-.24,0-.376,0-.512q-.006-7.867-.013-15.735c0-1.2,0-2.391,0-3.587a1.031,1.031,0,0,0-1.183-1.178H3.666c-.82,0-1.2.38-1.2,1.2q0,9.661,0,19.322v.463c.2-.235.328-.389.457-.544q4.539-5.476,9.08-10.95a2.923,2.923,0,0,1,.637-.608,1.712,1.712,0,0,1,2.3.459c1.375,1.476,2.734,2.966,4.118,4.433a1.306,1.306,0,0,0,2.062.1c.506-.416.994-.856,1.513-1.255a1.222,1.222,0,0,1,1.789.147c.33.342.65.694.973,1.042l6.689,7.2" transform="translate(-0.001 0)" fill="#731111"/>
    <path id="Path_83836" data-name="Path 83836" d="M222.986,51.6a3.7,3.7,0,1,1-3.717-3.689,3.7,3.7,0,0,1,3.717,3.689" transform="translate(-193.365 -42.971)" fill="#731111"/>
  </g>
</svg>
