<svg id="Group_44447" data-name="Group 44447" xmlns="http://www.w3.org/2000/svg" xmlns:xlink="http://www.w3.org/1999/xlink" width="25.041" height="25.043" viewBox="0 0 25.041 25.043">
  <defs>
    <clipPath id="clip-path">
      <rect id="Rectangle_22940" data-name="Rectangle 22940" width="25.041" height="25.043" fill="#731111"/>
    </clipPath>
  </defs>
  <g id="Group_44435" data-name="Group 44435" clip-path="url(#clip-path)">
    <path id="Path_83832" data-name="Path 83832" d="M12.536,0A12.521,12.521,0,1,1,0,12.513,12.524,12.524,0,0,1,12.536,0M12.53,22.547A10.026,10.026,0,1,0,2.5,12.523,10.055,10.055,0,0,0,12.53,22.547" transform="translate(0 0)" fill="#731111"/>
    <path id="Path_83833" data-name="Path 83833" d="M87.2,84.708h.393c1.145,0,2.29-.009,3.435.008a1.214,1.214,0,0,1,1.182,1.129,1.24,1.24,0,0,1-.908,1.31,1.956,1.956,0,0,1-.494.047c-1.086,0-2.173,0-3.259,0H87.2c0,.15,0,.265,0,.379,0,1.145.008,2.29-.007,3.435A1.2,1.2,0,0,1,86.134,92.2,1.223,1.223,0,0,1,84.8,91.43a1.844,1.844,0,0,1-.087-.6c-.008-1.086,0-2.173,0-3.259V87.2h-.365c-1.145,0-2.29,0-3.435-.005a1.159,1.159,0,0,1-1.1-.739,1.189,1.189,0,0,1,.193-1.317,1.237,1.237,0,0,1,1.015-.436c1.116.005,2.231,0,3.347,0h.35c0-.141,0-.245,0-.35,0-1.155,0-2.31.006-3.464a1.153,1.153,0,0,1,.7-1.072,1.187,1.187,0,0,1,1.277.111A1.221,1.221,0,0,1,87.2,81c0,1.116,0,2.231,0,3.347v.365" transform="translate(-73.431 -73.434)" fill="#731111"/>
  </g>
</svg>
