<svg id="Group_44643" data-name="Group 44643" xmlns="http://www.w3.org/2000/svg" xmlns:xlink="http://www.w3.org/1999/xlink" width="24" height="26.943" viewBox="0 0 24 26.943">
  <defs>
    <clipPath id="clip-path">
      <rect id="Rectangle_22968" data-name="Rectangle 22968" width="24" height="26.943" fill="#fff"/>
    </clipPath>
  </defs>
  <g id="Group_44607" data-name="Group 44607" clip-path="url(#clip-path)">
    <path id="Path_83900" data-name="Path 83900" d="M12.011,0A11.9,11.9,0,0,1,22.426,6.087a11.5,11.5,0,0,1,1.554,6.622,11.987,11.987,0,0,1-8.236,10.706c-.549.178-1.119.292-1.682.422-.119.027-.144.069-.144.179,0,.85,0,1.7,0,2.551,0,.3-.18.444-.465.349a24.638,24.638,0,0,1-8.873-4.964A13.835,13.835,0,0,1,.822,16.669,12.325,12.325,0,0,1,.068,10.9,11.949,11.949,0,0,1,2.381,4.8,11.626,11.626,0,0,1,9.742.219,12.96,12.96,0,0,1,12.011,0m.713,22.842c.342-.057.662-.108.981-.162a10.571,10.571,0,0,0,6.913-4.17,10.522,10.522,0,0,0,2.07-8.005,10.323,10.323,0,0,0-3.122-6.187A10.54,10.54,0,0,0,10.432,1.33,10.266,10.266,0,0,0,3.7,5.065a10.808,10.808,0,0,0-2.456,6.208,10.972,10.972,0,0,0,1.255,6.165,13.875,13.875,0,0,0,3.557,4.2,23.813,23.813,0,0,0,6.555,3.708,1,1,0,0,0,.118.029Z" transform="translate(0 -0.001)" fill="#fff"/>
    <path id="Path_83901" data-name="Path 83901" d="M61.15,40.286a4.913,4.913,0,0,1,2.753.7,3.51,3.51,0,0,1,.776,5.225c-.311.344-.665.65-1.008.963-.231.212-.481.4-.717.611a2.176,2.176,0,0,0-.747,1.33,2.987,2.987,0,0,1-.092.395,1.053,1.053,0,0,1-1.014.766,1.036,1.036,0,0,1-1.009-.793,2.6,2.6,0,0,1,.537-2.362,11.815,11.815,0,0,1,.986-.963c.279-.264.572-.513.846-.783a4.155,4.155,0,0,0,.416-.5,1.41,1.41,0,0,0-.369-1.987,2.058,2.058,0,0,0-2.737.455,3.137,3.137,0,0,0-.524,1.16,1.127,1.127,0,0,1-.83.872,1.166,1.166,0,0,1-1.46-1.274,4.072,4.072,0,0,1,3.463-3.723c.276-.053.557-.073.729-.095" transform="translate(-49.235 -34.826)" fill="#fff"/>
    <path id="Path_83902" data-name="Path 83902" d="M79.294,122.183a1.369,1.369,0,1,1-1.361,1.38,1.368,1.368,0,0,1,1.361-1.38" transform="translate(-67.371 -105.624)" fill="#fff"/>
  </g>
</svg>
