<svg id="Group_44598" data-name="Group 44598" xmlns="http://www.w3.org/2000/svg" xmlns:xlink="http://www.w3.org/1999/xlink" width="27.411" height="28.05" viewBox="0 0 27.411 28.05">
  <defs>
    <clipPath id="clip-path">
      <rect id="Rectangle_22962" data-name="Rectangle 22962" width="27.411" height="28.05" fill="#731111"/>
    </clipPath>
  </defs>
  <g id="Group_44597" data-name="Group 44597" clip-path="url(#clip-path)">
    <path id="Path_83867" data-name="Path 83867" d="M27.411,22.893V44.135c-.511,1.585-1.639,2.124-3.25,2.115-7.076-.036-14.152-.014-21.228-.017A2.637,2.637,0,0,1,0,43.292q0-4.012,0-8.023,0-5.863,0-11.726a2.561,2.561,0,0,1,2.242-2.726C3.117,20.738,4,20.8,4.937,20.8c0,.436-.006.822,0,1.208a15.211,15.211,0,0,0,.084,2.52,3.074,3.074,0,0,0,3.51,2.313,2.977,2.977,0,0,0,2.72-2.924c.027-1.022.005-2.045.005-3.079h4.792c0,1.077,0,2.1,0,3.132a2.64,2.64,0,0,0,1.045,2.138,3.186,3.186,0,0,0,3.528.436,2.82,2.82,0,0,0,1.739-2.863c-.032-.956-.006-1.914-.006-2.892h1.818c1.916,0,2.522.393,3.238,2.1M.824,28.232v.62q0,7.1,0,14.2c0,1.615.759,2.362,2.385,2.362H24.2a2.066,2.066,0,0,0,2.376-2.37q0-7.1,0-14.2c0-.2-.021-.4-.034-.612Z" transform="translate(0 -18.2)" fill="#731111"/>
    <path id="Path_83868" data-name="Path 83868" d="M56.975,0A1.448,1.448,0,0,1,57.8,1.547c-.044,1.314-.005,2.631-.016,3.947a1.142,1.142,0,0,1-1.265,1.248,1.115,1.115,0,0,1-1.177-1.261c-.005-1.336.039-2.674-.017-4.008A1.315,1.315,0,0,1,56.234,0Z" transform="translate(-48.457)" fill="#731111"/>
    <path id="Path_83869" data-name="Path 83869" d="M146.373,0a1.313,1.313,0,0,1,.924,1.463c-.048,1.331-.009,2.666-.016,4a1.219,1.219,0,1,1-2.434,0c-.005-1.333.033-2.667-.015-4A1.3,1.3,0,0,1,145.755,0Z" transform="translate(-126.865)" fill="#731111"/>
    <path id="Path_83870" data-name="Path 83870" d="M35.971,157c.535,0,1.07.009,1.6,0,.431-.009.652.165.648.616-.009.905-.006,1.811,0,2.716,0,.4-.18.623-.587.625-1.132,0-2.263,0-3.4,0-.435,0-.621-.212-.611-.655q.027-1.327,0-2.654c-.011-.491.221-.659.676-.65.555.012,1.111,0,1.667,0" transform="translate(-29.457 -137.522)" fill="#731111"/>
    <path id="Path_83871" data-name="Path 83871" d="M152.664,157c.535,0,1.07.008,1.6,0,.406-.008.612.153.608.579-.009.926-.012,1.852,0,2.778.006.428-.211.6-.6.6q-1.7.006-3.4,0a.535.535,0,0,1-.595-.618c0-.905.007-1.811,0-2.716,0-.452.227-.625.651-.622.576.005,1.152,0,1.729,0" transform="translate(-131.643 -137.524)" fill="#731111"/>
    <path id="Path_83872" data-name="Path 83872" d="M94.694,156.986c.534,0,1.069.013,1.6,0,.462-.015.689.169.684.646q-.015,1.325,0,2.651c0,.469-.22.67-.678.667-1.089-.006-2.178,0-3.267,0-.418,0-.647-.161-.638-.624q.027-1.356,0-2.712c-.009-.457.2-.629.633-.623.555.008,1.11,0,1.665,0" transform="translate(-80.935 -137.508)" fill="#731111"/>
    <path id="Path_83873" data-name="Path 83873" d="M35.919,108.413c-.535,0-1.069-.009-1.6,0-.459.01-.683-.176-.674-.657q.023-1.326,0-2.652c-.008-.482.223-.659.679-.655,1.09.009,2.18.012,3.269,0,.444-.006.645.191.644.624q0,1.357,0,2.714c0,.437-.213.635-.649.627-.555-.01-1.11,0-1.665,0" transform="translate(-29.468 -91.494)" fill="#731111"/>
    <path id="Path_83874" data-name="Path 83874" d="M94.749,104.454c.534,0,1.068.012,1.6,0,.439-.013.652.178.652.615,0,.9,0,1.808,0,2.712,0,.429-.194.642-.637.639-1.109-.008-2.218-.005-3.328,0-.4,0-.615-.165-.613-.585q.007-1.387,0-2.773a.521.521,0,0,1,.6-.6c.575,0,1.15,0,1.725,0" transform="translate(-80.961 -91.493)" fill="#731111"/>
    <path id="Path_83875" data-name="Path 83875" d="M152.626,104.451c.534,0,1.069.013,1.6,0,.48-.016.662.207.655.67-.013.884-.012,1.768,0,2.651.005.44-.189.644-.626.642q-1.665-.006-3.329,0a.554.554,0,0,1-.636-.64c0-.9,0-1.809,0-2.713a.536.536,0,0,1,.607-.606c.575,0,1.151,0,1.727,0" transform="translate(-131.649 -91.49)" fill="#731111"/>
  </g>
</svg>
