<svg xmlns="http://www.w3.org/2000/svg" width="24.4" height="24.401" viewBox="0 0 24.4 24.401">
  <g id="Group_44641" data-name="Group 44641" transform="translate(24593.201 -2388.184)">
    <path id="Path_83889" data-name="Path 83889" d="M0,5.546Q0,3.921,0,2.3A2.223,2.223,0,0,1,2.3,0Q5.561,0,8.824,0A2.222,2.222,0,0,1,11.111,2.28q0,3.277,0,6.554a2.224,2.224,0,0,1-2.284,2.279q-3.277,0-6.554,0A2.224,2.224,0,0,1,0,8.85c0-1.1,0-2.2,0-3.3M5.557.892c-1.083,0-2.166,0-3.248,0A1.332,1.332,0,0,0,.89,2.295q0,3.262,0,6.525a1.332,1.332,0,0,0,1.416,1.4q3.248,0,6.5,0a1.334,1.334,0,0,0,1.419-1.43q0-3.235,0-6.469A1.337,1.337,0,0,0,8.777.893q-1.61,0-3.221,0" transform="translate(-24593 2388.382)" fill="#fff" stroke="#fff" stroke-width="0.4"/>
    <path id="Path_83890" data-name="Path 83890" d="M179.2,11.111q-1.625,0-3.249,0a2.226,2.226,0,0,1-2.292-2.3q0-3.263,0-6.526A2.221,2.221,0,0,1,175.94,0q3.277,0,6.554,0a2.222,2.222,0,0,1,2.278,2.284q0,3.277,0,6.554a2.225,2.225,0,0,1-2.264,2.271c-1.1,0-2.2,0-3.3,0m-.015-.889c1.092,0,2.184,0,3.276,0a1.333,1.333,0,0,0,1.418-1.4q0-3.262,0-6.525a1.33,1.33,0,0,0-1.416-1.4q-3.248,0-6.5,0a1.335,1.335,0,0,0-1.418,1.43q0,3.235,0,6.469A1.338,1.338,0,0,0,176,10.221q1.6,0,3.193,0" transform="translate(-24753.773 2388.385)" fill="#fff" stroke="#fff" stroke-width="0.4"/>
    <path id="Path_83891" data-name="Path 83891" d="M0,179.2q0-1.625,0-3.249a2.222,2.222,0,0,1,2.275-2.288q3.277,0,6.554,0a2.222,2.222,0,0,1,2.281,2.281q0,3.277,0,6.554a2.223,2.223,0,0,1-2.261,2.274q-3.291,0-6.582,0A2.224,2.224,0,0,1,0,182.5q0-1.652,0-3.3m10.222.018q0-1.61,0-3.221a1.337,1.337,0,0,0-1.431-1.445q-3.235,0-6.469,0A1.337,1.337,0,0,0,.891,176q0,3.221,0,6.441a1.341,1.341,0,0,0,1.459,1.446q3.207,0,6.414,0a1.344,1.344,0,0,0,1.46-1.473q0-1.6,0-3.193" transform="translate(-24593.002 2227.612)" fill="#fff" stroke="#fff" stroke-width="0.4"/>
    <path id="Path_83892" data-name="Path 83892" d="M179.23,173.664q1.625,0,3.249,0a2.223,2.223,0,0,1,2.288,2.275q0,3.277,0,6.554a2.224,2.224,0,0,1-2.282,2.281q-3.277,0-6.554,0a2.223,2.223,0,0,1-2.273-2.261q0-3.291,0-6.582a2.222,2.222,0,0,1,2.268-2.267c1.1,0,2.2,0,3.3,0m-4.684,5.526c0,1.092,0,2.184,0,3.276a1.333,1.333,0,0,0,1.4,1.418q3.262,0,6.525,0a1.332,1.332,0,0,0,1.4-1.417q0-3.248,0-6.5a1.334,1.334,0,0,0-1.43-1.418q-3.235,0-6.469,0A1.337,1.337,0,0,0,174.547,176q0,1.6,0,3.193" transform="translate(-24753.77 2227.609)" fill="#fff" stroke="#fff" stroke-width="0.4"/>
    <path id="Path_83893" data-name="Path 83893" d="M207.416,207.416v1.661c0,.222,0,.444,0,.666,0,.353-.163.555-.438.559s-.448-.2-.449-.548c0-.675,0-1.351,0-2.026v-.312h-.336c-.676,0-1.351,0-2.026,0-.327,0-.525-.175-.524-.445s.2-.441.526-.442c.776,0,1.551,0,2.36,0V205.6q0-.68,0-1.36c0-.4.16-.606.452-.6s.436.21.437.588q0,1,0,2v.3h2.126c.1,0,.2,0,.305,0a.445.445,0,0,1,.455.429.437.437,0,0,1-.457.454c-.675.008-1.351,0-2.026,0h-.4" transform="translate(-24781.527 2199.857)" fill="#fff" stroke="#fff" stroke-width="0.4"/>
  </g>
</svg>
