<svg id="Group_44644" data-name="Group 44644" xmlns="http://www.w3.org/2000/svg" xmlns:xlink="http://www.w3.org/1999/xlink" width="16.44" height="23.38" viewBox="0 0 16.44 23.38">
  <defs>
    <clipPath id="clip-path">
      <rect id="Rectangle_22969" data-name="Rectangle 22969" width="16.44" height="23.38" fill="#fff"/>
    </clipPath>
  </defs>
  <g id="Group_44609" data-name="Group 44609" clip-path="url(#clip-path)">
    <path id="Path_83903" data-name="Path 83903" d="M8.117,286.813c-.139-.13-.276-.249-.4-.379a4.139,4.139,0,0,0-3.442-1.256,9.612,9.612,0,0,0-2.041.423c-.071.021-.143.038-.232.062V282.84a4.534,4.534,0,0,1-.463-.108,2.131,2.131,0,0,1-1.3-1.316A3.038,3.038,0,0,1,.4,278.733a.5.5,0,0,0,.05-.228c0-1.078-.023-2.156.009-3.233a3.052,3.052,0,0,1,1.833-2.836,2.461,2.461,0,0,1,1.076-.236q4.8,0,9.6,0a2.988,2.988,0,0,1,2.814,2.32,3.868,3.868,0,0,1,.1.843c.012.981,0,1.962.009,2.943a.678.678,0,0,0,.1.34,3.041,3.041,0,0,1-.262,3.539,1.832,1.832,0,0,1-1.277.633c-.031,0-.062.009-.108.016,0,.492,0,.979,0,1.465s0,.975,0,1.486c-.079-.025-.144-.043-.208-.065a10.568,10.568,0,0,0-2.046-.543,3.854,3.854,0,0,0-3.718,1.349c-.086.1-.178.2-.258.286M3.022,275.355v.191c0,.74,0,1.48,0,2.219a.326.326,0,0,0,.152.3,1.857,1.857,0,0,1,.347.332,2.845,2.845,0,0,1,.619,2.135A2.618,2.618,0,0,1,3.089,282.5a.227.227,0,0,0-.064.162c0,.509,0,1.018,0,1.528,0,.041.007.082.011.133a5.548,5.548,0,0,1,5.023,1.026c.246-.182.469-.367.712-.522a5.02,5.02,0,0,1,3.587-.643c.32.049.636.122.968.186,0-.539-.008-1.07,0-1.6a.556.556,0,0,0-.2-.466,2.753,2.753,0,0,1-.822-2.341,2.614,2.614,0,0,1,.909-1.855.266.266,0,0,0,.107-.229c0-.777,0-1.555,0-2.332,0-.051-.006-.1-.012-.189-.582.02-1.151.017-1.715.063a4.054,4.054,0,0,0-2.082.729,4.78,4.78,0,0,0-1.164,1.317c-.039.06-.083.117-.148.209a5.164,5.164,0,0,0-5.179-2.324M2,277.667v-3.217a.482.482,0,0,1,.086-.026c.544-.048,1.088-.121,1.633-.137a5.731,5.731,0,0,1,4.319,1.656c.033.032.07.058.1.087a4.724,4.724,0,0,1,2.739-1.532,9.982,9.982,0,0,1,2.419-.128c.346.015.692.037,1.054.056v3.242l.516.071v-.169c0-.729,0-1.458,0-2.187a3.03,3.03,0,0,0-.032-.432,1.991,1.991,0,0,0-1.908-1.725q-4.753,0-9.505,0a1.846,1.846,0,0,0-.537.084,2.064,2.064,0,0,0-1.4,1.958c-.01.8,0,1.608,0,2.413a.611.611,0,0,0,.013.088l.506-.1m1.13,2.6a1.943,1.943,0,0,0-.307-1.1.827.827,0,0,0-1.472-.017,2.052,2.052,0,0,0,.015,2.227.819.819,0,0,0,1.435-.009,1.894,1.894,0,0,0,.328-1.1m12.29,0a1.89,1.89,0,0,0-.379-1.2.8.8,0,0,0-1.336-.009,1.7,1.7,0,0,0-.37.942,1.832,1.832,0,0,0,.45,1.519.76.76,0,0,0,1.174,0,1.783,1.783,0,0,0,.462-1.25" transform="translate(0.001 -263.433)" fill="#fff"/>
    <path id="Path_83904" data-name="Path 83904" d="M125.927,0A4.123,4.123,0,1,1,121.8,4.133,4.115,4.115,0,0,1,125.927,0m-.014,1.021a3.1,3.1,0,1,0,3.1,3.078,3.1,3.1,0,0,0-3.1-3.078" transform="translate(-117.877 -0.001)" fill="#fff"/>
  </g>
</svg>
