<svg id="Group_44436" data-name="Group 44436" xmlns="http://www.w3.org/2000/svg" xmlns:xlink="http://www.w3.org/1999/xlink" width="58.082" height="58.085" viewBox="0 0 58.082 58.085">
  <defs>
    <clipPath id="clip-path">
      <rect id="Rectangle_22940" data-name="Rectangle 22940" width="58.082" height="58.085" fill="#731111"/>
    </clipPath>
  </defs>
  <g id="Group_44435" data-name="Group 44435" clip-path="url(#clip-path)">
    <path id="Path_83832" data-name="Path 83832" d="M29.077,0A29.042,29.042,0,1,1,0,29.023,29.048,29.048,0,0,1,29.077,0m-.013,52.3A23.254,23.254,0,1,0,5.788,29.047,23.322,23.322,0,0,0,29.064,52.3" transform="translate(0 0)" fill="#731111"/>
    <path id="Path_83833" data-name="Path 83833" d="M97.119,91.335h.912c2.656,0,5.312-.02,7.967.019a2.817,2.817,0,0,1,2.742,2.619,2.877,2.877,0,0,1-2.106,3.037,4.536,4.536,0,0,1-1.145.108c-2.52.009-5.039,0-7.559,0h-.811c0,.349,0,.614,0,.879,0,2.656.018,5.312-.017,7.967a2.791,2.791,0,0,1-2.456,2.745,2.837,2.837,0,0,1-3.1-1.789,4.276,4.276,0,0,1-.2-1.4c-.019-2.52-.009-5.039-.009-7.559v-.844h-.846c-2.656,0-5.312.011-7.967-.013A2.687,2.687,0,0,1,79.955,95.4a2.758,2.758,0,0,1,.448-3.056,2.869,2.869,0,0,1,2.354-1.01c2.588.012,5.175,0,7.763,0h.811c0-.327,0-.569,0-.812,0-2.679-.011-5.357.014-8.036A2.674,2.674,0,0,1,92.963,80a2.752,2.752,0,0,1,2.961.257,2.832,2.832,0,0,1,1.2,2.466c-.009,2.588,0,5.176,0,7.763v.847" transform="translate(-65.184 -65.186)" fill="#731111"/>
  </g>
</svg>
