<svg xmlns="http://www.w3.org/2000/svg" xmlns:xlink="http://www.w3.org/1999/xlink" width="28" height="33" viewBox="0 0 28 33">
  <defs>
    <clipPath id="clip-path">
      <rect id="Rectangle_22963" data-name="Rectangle 22963" width="28" height="33" transform="translate(-0.099 -0.427)" fill="#02b3f0"/>
    </clipPath>
  </defs>
  <g id="Group_44602" data-name="Group 44602" transform="translate(0.099 0.427)">
    <g id="Group_44601" data-name="Group 44601" clip-path="url(#clip-path)">
      <path id="Path_83878" data-name="Path 83878" d="M105.159,146.816a7.81,7.81,0,0,1-4.4-2.1,7.269,7.269,0,1,1,12.256-6.238c.024.169.078.334.117.5v1.063c-.039.168-.088.334-.115.5a7.033,7.033,0,0,1-4.2,5.6,16.4,16.4,0,0,1-2.19.671Zm2.249-6.742a6.247,6.247,0,0,0,.975-.012c.259-.044.635-.125.715-.3a.879.879,0,0,0-.2-.758c-.855-.926-1.738-1.829-2.652-2.7a.764.764,0,0,0-.737-.059c-.973.933-1.925,1.892-2.827,2.894-.409.455-.165.89.457.927.348.021.7,0,1.137,0,0,.633-.007,1.2,0,1.769a.757.757,0,0,0,.862.853c.442-.008.885,0,1.328,0,.7-.012.93-.246.939-.97.006-.526,0-1.051,0-1.648" transform="translate(-85.499 -114.669)" fill="#02b3f0"/>
      <path id="Path_83879" data-name="Path 83879" d="M15.144,0q3.529,3.824,7.05,7.654a1.063,1.063,0,0,1,.278.641c.019,2.453.012,4.907.012,7.445l-1.511-.215V9.963c-.792,0-1.515.022-2.237-.007a10.335,10.335,0,0,1-1.778-.177A3.982,3.982,0,0,1,13.671,5.7c-.013-1.344,0-2.689,0-4.076-.251-.014-.443-.035-.635-.035q-4.447,0-8.895,0A2.346,2.346,0,0,0,1.6,4.163q0,10.322,0,20.644A2.412,2.412,0,0,0,4.22,27.458c2.124.009,4.249.024,6.372-.012.587-.01.971.094,1.085.731a5.436,5.436,0,0,0,.3.82H11.2c-2.1,0-4.208-.081-6.305.021C2.3,29.145.522,28.029,0,25.5V3.454A4.224,4.224,0,0,1,3.454,0Zm.11,2.408c0,1.307-.052,2.448.014,3.581A2.206,2.206,0,0,0,17.2,8.205a32.944,32.944,0,0,0,3.392.219l.048-.177L15.254,2.408" fill="#02b3f0"/>
      <path id="Path_83880" data-name="Path 83880" d="M49.155,88.891c1.482,0,2.965,0,4.447,0,.673,0,1.025.271,1,.781-.027.645-.478.778-1.015.778-2.987,0-5.974,0-8.961,0-.67,0-1-.293-.962-.818.045-.6.444-.746.973-.743,1.5.009,3.009,0,4.514,0" transform="translate(-37.864 -77.08)" fill="#02b3f0"/>
      <path id="Path_83881" data-name="Path 83881" d="M53.951,123.087c-.7.52-1.219.928-1.765,1.295a1.165,1.165,0,0,1-.616.152q-3.411.015-6.822,0c-.735,0-1.068-.254-1.074-.786s.332-.8,1.053-.8q4.173,0,8.345,0a7.079,7.079,0,0,1,.879.128" transform="translate(-37.873 -106.62)" fill="#02b3f0"/>
      <path id="Path_83882" data-name="Path 83882" d="M49.787,156.957l-.564,1.588c-1.593,0-3.222.02-4.85-.013a.7.7,0,0,1-.688-.817.74.74,0,0,1,.776-.746c.595-.035,1.193-.013,1.79-.013h3.535" transform="translate(-37.881 -136.101)" fill="#02b3f0"/>
    </g>
  </g>
</svg>
