<svg id="Group_44646" data-name="Group 44646" xmlns="http://www.w3.org/2000/svg" xmlns:xlink="http://www.w3.org/1999/xlink" width="24" height="21.868" viewBox="0 0 24 21.868">
  <defs>
    <clipPath id="clip-path">
      <rect id="Rectangle_22971" data-name="Rectangle 22971" width="24" height="21.868" fill="#fff"/>
    </clipPath>
  </defs>
  <g id="Group_44613" data-name="Group 44613" clip-path="url(#clip-path)">
    <path id="Path_83908" data-name="Path 83908" d="M9.63,21.869H.448A.421.421,0,0,1,0,21.428c0-1.445-.013-2.889,0-4.334A4.047,4.047,0,0,1,1.2,14.3,5.744,5.744,0,0,1,4.6,12.58a9.037,9.037,0,0,1,1.1-.079c.413-.013.828-.006,1.241,0a.116.116,0,0,0,.136-.1c.044-.174.1-.346.147-.518a.094.094,0,0,0-.042-.126A3.772,3.772,0,0,1,5.5,8.818a.29.29,0,0,0-.123-.231,2.352,2.352,0,0,1-.738-1.023,5.353,5.353,0,0,1-.361-1.758,10.6,10.6,0,0,1,.336-3.318A2.712,2.712,0,0,1,6.134.672,6.6,6.6,0,0,1,8.093.1a9.323,9.323,0,0,1,2.962.031,6.5,6.5,0,0,1,1.49.438,3.648,3.648,0,0,1,2.277,2.746,7.235,7.235,0,0,1-.376,4.217,3.03,3.03,0,0,1-.664,1.04.263.263,0,0,0-.048.169,3.922,3.922,0,0,1-.448,1.8,3.2,3.2,0,0,1-1.176,1.245.116.116,0,0,0-.065.158c.046.149.084.3.118.453a.107.107,0,0,0,.126.1q.668,0,1.335,0A6.059,6.059,0,0,1,17.8,14.037a4.2,4.2,0,0,1,1.423,2.619,7.021,7.021,0,0,1,.038.9c0,1.269,0,2.538,0,3.807,0,.351-.156.507-.508.507H9.63m-1.33-4.9c-.081.106-.152.208-.233.3a2.124,2.124,0,0,1-.275.286.406.406,0,0,1-.611-.128c-.021-.037-.038-.077-.055-.116l-.7-1.583c-.338-.759-.679-1.518-1.013-2.279a.143.143,0,0,0-.175-.1c-.135.02-.272.025-.407.044A5.009,5.009,0,0,0,1.863,14.82,3.356,3.356,0,0,0,.845,17.272c.008,1.2,0,2.405,0,3.608v.14H2.068c0-.093,0-.178,0-.263q0-.955,0-1.909a.4.4,0,0,1,.422-.441.4.4,0,0,1,.42.444c0,.433,0,.867,0,1.3,0,.288,0,.575,0,.865H3.94v-.15q0-1.013,0-2.027a.392.392,0,0,1,.362-.426.411.411,0,0,1,.48.452c0,.672,0,1.343,0,2.015v.141H8.106c.007-.051.015-.1.02-.143.121-1.1.233-2.2.368-3.305a.664.664,0,0,0-.193-.6m2.653-.009a.642.642,0,0,0-.187.526c.113.883.2,1.769.3,2.653.032.29.065.58.1.874h3.322V18.687c0-.281,0-.562,0-.843a.421.421,0,1,1,.842.02q0,1.505,0,3.011v.146h1.033c0-.328,0-.647,0-.967,0-.629,0-1.257,0-1.886a.392.392,0,0,1,.318-.407.412.412,0,0,1,.523.423q0,1.347,0,2.694v.137h1.213c0-.026.005-.041.005-.057,0-1.164,0-2.327,0-3.491a5.269,5.269,0,0,0-.038-.747,3.4,3.4,0,0,0-1.132-2.05,5.215,5.215,0,0,0-3.209-1.32.162.162,0,0,0-.191.116q-.86,1.943-1.728,3.883a.424.424,0,0,1-.764.1c-.132-.159-.262-.32-.4-.492M6.4,5.036a7.7,7.7,0,0,0-.114.909c-.007.721.01,1.443.032,2.164A7.14,7.14,0,0,0,6.406,9.18a2.751,2.751,0,0,0,2.271,2.277,5.892,5.892,0,0,0,2.04-.016,2.549,2.549,0,0,0,1.712-1.109,2.85,2.85,0,0,0,.465-1.723c-.016-.573-.024-1.147-.049-1.72-.023-.53-.063-1.059-.1-1.588-.012-.161-.043-.32-.068-.5-.351.124-.683.236-1.012.358a15.105,15.105,0,0,1-2.011.659,3.5,3.5,0,0,1-3.163-.724c-.017-.014-.037-.025-.087-.056m7.284,2.03.042,0c.012-.028.025-.055.035-.084a6.518,6.518,0,0,0,.227-3.541,2.734,2.734,0,0,0-1.608-2.014,5.747,5.747,0,0,0-.887-.33A7.938,7.938,0,0,0,8.359.917a6.019,6.019,0,0,0-1.811.491A1.96,1.96,0,0,0,5.413,2.78,9.884,9.884,0,0,0,5.12,5.623,5.171,5.171,0,0,0,5.37,7.1c.013.038.03.074.052.127,0-.281,0-.537,0-.794a6.27,6.27,0,0,1,.413-2.3.421.421,0,0,1,.734-.133c.134.142.269.283.416.411a2.635,2.635,0,0,0,1.952.67,4.345,4.345,0,0,0,1.189-.247c.611-.216,1.213-.454,1.825-.666.316-.109.643-.191.969-.268a.406.406,0,0,1,.526.332c.088.685.169,1.371.236,2.058.025.259,0,.522,0,.783m-2.081,9.361,1.376-3.087c-.308,0-.592,0-.876,0a.368.368,0,0,0-.2.068c-.538.408-1.073.821-1.608,1.233-.029.023-.056.048-.089.077l1.4,1.705M8.013,12.164c-.055.189-.108.368-.155.548a.107.107,0,0,0,.04.084q.823.639,1.651,1.271a.125.125,0,0,0,.117,0q.829-.631,1.652-1.272c.024-.018.051-.059.046-.083-.039-.174-.086-.345-.132-.526a6.228,6.228,0,0,1-1.6.178,5.833,5.833,0,0,1-1.618-.2m1,2.56c-.047-.038-.08-.065-.114-.091-.445-.343-.9-.674-1.33-1.034a.959.959,0,0,0-.772-.262,4.4,4.4,0,0,1-.516,0l1.374,3.082,1.358-1.7m1.3,6.295-.292-2.669c-.327.3-.462.312-.771.067l-.295,2.6ZM9.623,17.4c.255-.371.5-.723.737-1.079.014-.022,0-.08-.024-.107-.18-.226-.364-.448-.547-.672-.056-.068-.113-.135-.176-.211-.243.3-.477.6-.708.889a.1.1,0,0,0-.008.09c.236.358.475.714.727,1.089" transform="translate(0 -0.001)" fill="#fff"/>
    <path id="Path_83909" data-name="Path 83909" d="M641.9,168.487c-.316,0-.633.015-.947,0-.279-.018-.378-.134-.394-.413-.012-.206-.007-.414,0-.62a.1.1,0,0,0-.08-.119,3.5,3.5,0,0,1-1.02-.563.151.151,0,0,0-.13-.006c-.187.088-.367.192-.555.275a.366.366,0,0,1-.528-.142,4.529,4.529,0,0,1-.264-.414c-.2-.337-.387-.678-.581-1.017a.384.384,0,0,1,.095-.568,4.978,4.978,0,0,1,.539-.349.142.142,0,0,0,.083-.167,3.326,3.326,0,0,1,0-1.107.126.126,0,0,0-.072-.15,5.332,5.332,0,0,1-.572-.382.362.362,0,0,1-.085-.522c.206-.377.411-.754.622-1.128a3.327,3.327,0,0,1,.262-.4.343.343,0,0,1,.493-.118,6.11,6.11,0,0,1,.539.306.136.136,0,0,0,.191-.011,3.331,3.331,0,0,1,.964-.568.126.126,0,0,0,.1-.145c-.006-.175-.006-.352,0-.527.014-.3.13-.433.432-.444.448-.016.9-.008,1.346-.01.125,0,.25,0,.375,0a.357.357,0,0,1,.394.323,3.189,3.189,0,0,1,.03.524c0,.237,0,.222.209.338.291.164.571.349.85.533a.12.12,0,0,0,.153.011c.177-.107.354-.214.539-.307a.366.366,0,0,1,.555.137,6.34,6.34,0,0,1,.336.548c.175.309.343.622.514.933a.383.383,0,0,1-.105.566,4.956,4.956,0,0,1-.547.336.122.122,0,0,0-.075.154,2.992,2.992,0,0,1,0,1.141.11.11,0,0,0,.065.138c.183.1.367.207.542.325a.353.353,0,0,1,.149.513,3.64,3.64,0,0,1-.209.405c-.208.358-.42.713-.632,1.068a.367.367,0,0,1-.5.192,5.227,5.227,0,0,1-.6-.293.142.142,0,0,0-.185.012,3.31,3.31,0,0,1-.964.545.124.124,0,0,0-.1.145c.006.191.011.383,0,.573-.023.337-.165.462-.5.464l-.363,0H641.9s0-.01,0-.015m.386-.838c0-.2-.009-.394,0-.584a.433.433,0,0,1,.361-.441,3.525,3.525,0,0,0,.647-.265,4.994,4.994,0,0,0,.612-.45.438.438,0,0,1,.549-.051c.153.091.315.167.481.254l.426-.734c-.084-.047-.16-.087-.233-.131a3.353,3.353,0,0,1-.3-.185.4.4,0,0,1-.165-.531,1.98,1.98,0,0,0,.1-.843c-.022-.189-.067-.376-.1-.564-.06-.3-.015-.4.25-.558l.459-.265-.427-.754c-.2.107-.37.211-.553.3a.374.374,0,0,1-.458-.054,3.294,3.294,0,0,0-1.339-.811c-.252-.085-.306-.182-.306-.447v-.5h-.89c0,.183.007.355,0,.526a.42.42,0,0,1-.365.447,2.467,2.467,0,0,0-1.04.564c-.081.073-.162.147-.247.215a.363.363,0,0,1-.492.04l-.508-.288-.431.767.516.343a.365.365,0,0,1,.166.424,2.956,2.956,0,0,0-.024,1.359.589.589,0,0,1-.357.756c-.1.052-.2.121-.3.186l.431.743c.1-.055.182-.1.269-.149a3.214,3.214,0,0,1,.307-.143.4.4,0,0,1,.485.122,1.92,1.92,0,0,0,.832.547c.155.054.311.1.464.161a.409.409,0,0,1,.295.439c-.008.182,0,.365,0,.554Z" transform="translate(-622.364 -155.44)" fill="#fff"/>
    <path id="Path_83910" data-name="Path 83910" d="M741.685,267.206a2.107,2.107,0,0,1,2.147,2.118,2.159,2.159,0,0,1-2.163,2.145,2.137,2.137,0,0,1-2.1-2.163,2.109,2.109,0,0,1,2.117-2.1m0,.843a1.252,1.252,0,0,0-1.278,1.248,1.289,1.289,0,1,0,2.577.024,1.273,1.273,0,0,0-1.3-1.272" transform="translate(-722.227 -260.94)" fill="#fff"/>
  </g>
</svg>
