<svg xmlns="http://www.w3.org/2000/svg" width="26.363" height="32.482" viewBox="0 0 26.363 32.482">
  <g id="delete-button" transform="translate(-45.905 0.25)">
    <g id="Group_44501" data-name="Group 44501" transform="translate(46.155)">
      <path id="Path_83844" data-name="Path 83844" d="M49.809,3.832h4.978a4.328,4.328,0,0,1,8.6,0h4.979a3.658,3.658,0,0,1,3.654,3.654v.187a3.657,3.657,0,0,1-2.309,3.394V28.328a3.658,3.658,0,0,1-3.654,3.654H52.118a3.658,3.658,0,0,1-3.654-3.654V11.067a3.658,3.658,0,0,1-2.309-3.394V7.486A3.658,3.658,0,0,1,49.809,3.832Zm9.278-2.1a2.6,2.6,0,0,0-2.549,2.1h5.1A2.6,2.6,0,0,0,59.086,1.733ZM50.2,28.328a1.923,1.923,0,0,0,1.921,1.921H66.055a1.923,1.923,0,0,0,1.921-1.921v-17H50.2ZM47.888,7.673a1.923,1.923,0,0,0,1.921,1.921H68.364a1.923,1.923,0,0,0,1.921-1.921V7.486a1.923,1.923,0,0,0-1.921-1.921H49.809a1.923,1.923,0,0,0-1.921,1.921v.187Z" transform="translate(-46.155)" fill="#731111" stroke="#731111" stroke-width="0.5"/>
      <path id="Path_83845" data-name="Path 83845" d="M158.941,261.059a.866.866,0,0,1-.866-.866v-9.755a.866.866,0,1,1,1.733,0v9.755A.866.866,0,0,1,158.941,261.059Z" transform="translate(-141.365 -233.026)" fill="#731111" stroke="#731111" stroke-width="0.5"/>
      <path id="Path_83846" data-name="Path 83846" d="M229.011,261.059a.867.867,0,0,1-.866-.866v-9.755a.866.866,0,1,1,1.733,0v9.755A.866.866,0,0,1,229.011,261.059Z" transform="translate(-216.08 -233.026)" fill="#731111" stroke="#731111" stroke-width="0.5"/>
      <path id="Path_83847" data-name="Path 83847" d="M299.08,261.059a.866.866,0,0,1-.866-.866v-9.755a.866.866,0,1,1,1.733,0v9.755A.866.866,0,0,1,299.08,261.059Z" transform="translate(-290.794 -233.026)" fill="#731111" stroke="#731111" stroke-width="0.5"/>
    </g>
  </g>
</svg>
