<svg xmlns="http://www.w3.org/2000/svg" width="24" height="22.667" viewBox="0 0 24 22.667">
  <g id="noun-category-3535749" transform="translate(-4 -6)">
    <path id="Path_83884" data-name="Path 83884" d="M34.333,52H31a2,2,0,0,0-2,2v3.333a2,2,0,0,0,2,2h3.333a2,2,0,0,0,2-2V54A2,2,0,0,0,34.333,52ZM35,57.333a.667.667,0,0,1-.667.667H31a.667.667,0,0,1-.667-.667V54A.667.667,0,0,1,31,53.333h3.333A.667.667,0,0,1,35,54Z" transform="translate(-16.667 -30.667)" fill="#fff"/>
    <path id="Path_83885" data-name="Path 83885" d="M9.333,52H6a2,2,0,0,0-2,2v3.333a2,2,0,0,0,2,2H9.333a2,2,0,0,0,2-2V54A2,2,0,0,0,9.333,52ZM10,57.333A.667.667,0,0,1,9.333,58H6a.667.667,0,0,1-.667-.667V54A.667.667,0,0,1,6,53.333H9.333A.667.667,0,0,1,10,54Z" transform="translate(0 -30.667)" fill="#fff"/>
    <path id="Path_83886" data-name="Path 83886" d="M59.333,52H56a2,2,0,0,0-2,2v3.333a2,2,0,0,0,2,2h3.333a2,2,0,0,0,2-2V54A2,2,0,0,0,59.333,52ZM60,57.333a.667.667,0,0,1-.667.667H56a.667.667,0,0,1-.667-.667V54A.667.667,0,0,1,56,53.333h3.333A.667.667,0,0,1,60,54Z" transform="translate(-33.333 -30.667)" fill="#fff"/>
    <path id="Path_83887" data-name="Path 83887" d="M31,11.333V8a2,2,0,0,0-2-2H15a2,2,0,0,0-2,2v3.333a2,2,0,0,0,2,2H29a2,2,0,0,0,2-2Zm-16.667,0V8A.667.667,0,0,1,15,7.333H29A.667.667,0,0,1,29.667,8v3.333A.667.667,0,0,1,29,12H15A.667.667,0,0,1,14.333,11.333Z" transform="translate(-6)" fill="#fff"/>
    <path id="Path_83888" data-name="Path 83888" d="M34.667,31a.667.667,0,0,0-.667.667v3.057l-.862-.862a.667.667,0,1,0-.943.943l2,2a.666.666,0,0,0,.943,0l2-2a.667.667,0,1,0-.943-.943l-.862.862V31.667A.667.667,0,0,0,34.667,31Z" transform="translate(-18.667 -16.667)" fill="#fff"/>
  </g>
</svg>
