<svg xmlns="http://www.w3.org/2000/svg" xmlns:xlink="http://www.w3.org/1999/xlink" width="22" height="22" viewBox="0 0 22 22">
  <defs>
    <clipPath id="clip-path">
      <rect id="Rectangle_22937" data-name="Rectangle 22937" width="22" height="22" transform="translate(-0.25 -0.25)" fill="#02427a"/>
    </clipPath>
  </defs>
  <g id="Group_44432" data-name="Group 44432" transform="translate(0.25 0.25)">
    <g id="Group_44431" data-name="Group 44431" transform="translate(0 0)" clip-path="url(#clip-path)">
      <path id="Path_83826" data-name="Path 83826" d="M0,10.858a10.875,10.875,0,1,1,10.83,10.893A10.856,10.856,0,0,1,0,10.858m20.883.036a10.009,10.009,0,1,0-10.028,9.99,10.015,10.015,0,0,0,10.028-9.99" transform="translate(-0.001 -0.001)" fill="#02427a"/>
      <path id="Path_83827" data-name="Path 83827" d="M20.364,51.1a8.8,8.8,0,0,1-6.288-3.01.482.482,0,0,1-.1-.576,5.629,5.629,0,0,1,5.247-3.7q1.579-.015,3.16,0a5.626,5.626,0,0,1,5.244,3.7.486.486,0,0,1-.1.575A9.289,9.289,0,0,1,20.364,51.1" transform="translate(-9.925 -31.231)" fill="#02427a"/>
      <path id="Path_83828" data-name="Path 83828" d="M32.037,16.8a3.935,3.935,0,1,1-3.93-3.938,3.917,3.917,0,0,1,3.93,3.938" transform="translate(-17.228 -9.171)" fill="#02427a"/>
    </g>
  </g>
</svg>
